# xmcd
#
# Track frame offsets:
#	182
#	15090
#	27832
#	41402
#	56420
#	67852
#	83707
#	97805
#	109715
#	119795
#
# Disc length: 1747 seconds
#
# Revision: 5
# Processed by: cddbd v1.5.1PL2 Copyright (c) Steve Scherf et al.
# Submitted via: dBpowerAMP V4.0
#
DISCID=6b06d10a
DTITLE=Randy Travis - Wind In The Wire
DYEAR=1993
DGENRE=Country
TTITLE0=Down At The Old Corral
TTITLE1=Cowboy Boogie
TTITLE2=Blue Mesa
TTITLE3=Memories Of Old Santa Fe
TTITLE4=Roamin' Wyomin'
TTITLE5=Wind In The Wire
TTITLE6=The Old Chisholm Trail
TTITLE7=Paniolo Country
TTITLE8=Hula hands
TTITLE9=Beyond the Reef
EXTD=
EXTT0=
EXTT1=
EXTT2=
EXTT3=
EXTT4=
EXTT5=
EXTT6=
EXTT7=
EXTT8=
EXTT9=
PLAYORDER=
